<svg width="59" height="56" viewBox="0 0 59 56" fill="none" xmlns="http://www.w3.org/2000/svg"><path d="M38.338 53V50.0166H32.3233V53C32.3233 54.6569 30.9802 56 29.3233 56C27.6665 56 26.3233 54.6568 26.3233 53V50.0166H19.6016V53C19.6016 54.6568 18.2585 56 16.6016 56C14.9448 56 13.6016 54.6569 13.6016 53V49.9551C10.2981 49.5063 7.94734 46.5662 7.94734 43.2881V41.8477L2.97859 41.8135C1.32195 41.8016 -0.0115796 40.4487 7.58246e-05 38.792C0.01198 37.1354 1.3649 35.8018 3.02156 35.8135L7.94734 35.8477V31.4072L2.97859 31.373C1.32195 31.3612 -0.0115796 30.0083 7.58246e-05 28.3516C0.0118458 26.6948 1.36482 25.3614 3.02156 25.373L7.94734 25.4072V21H3.00008C1.34322 21 7.58246e-05 19.6569 7.58246e-05 18C7.58246e-05 16.3431 1.34322 15 3.00008 15H7.94734V12.7119C7.94734 9.43377 10.298 6.49267 13.6016 6.04395V3C13.6016 1.34315 14.9448 0 16.6016 0C18.2585 3.19549e-05 19.6016 1.34317 19.6016 3V5.9834H26.3233V3C26.3233 1.34317 27.6665 3.50469e-05 29.3233 0C30.9802 0 32.3233 1.34315 32.3233 3V5.9834H38.338V3C38.338 1.3433 39.6813 0.000245306 41.338 0C42.9948 0 44.338 1.34315 44.338 3V6.04395C47.6418 6.49249 49.9923 9.43364 49.9923 12.7119V15H56.0001C57.6569 15 59.0001 16.3431 59.0001 18C59.0001 19.6569 57.6569 21 56.0001 21H49.9923V25.7031L56.0216 25.7461C57.6781 25.758 59.0116 27.11 59.0001 28.7666C58.9884 30.4234 57.6354 31.7577 55.9786 31.7461L49.9923 31.7031V36.1436L56.0216 36.1865C57.6782 36.1984 59.0117 37.5513 59.0001 39.208C58.9882 40.8646 57.6353 42.1982 55.9786 42.1865L49.9923 42.1436V43.2881C49.9923 46.5663 47.6417 49.5065 44.338 49.9551V53C44.338 54.6569 42.9948 56 41.338 56C39.6813 55.9998 38.338 54.6567 38.338 53Z" fill="url(#paint0_device)"/><path d="M12.0001 43.5C12.0001 42.1193 13.1194 41 14.5001 41C15.8808 41 17.0001 42.1193 17.0001 43.5C17.0001 44.8807 15.8808 46 14.5001 46C13.1194 46 12.0001 44.8807 12.0001 43.5Z" fill="white"/><path d="M41.0001 43.5C41.0001 42.1193 42.1194 41 43.5001 41C44.8808 41 46.0001 42.1193 46.0001 43.5C46.0001 44.8807 44.8808 46 43.5001 46C42.1194 46 41.0001 44.8807 41.0001 43.5Z" fill="white"/><path d="M12.0001 12.5C12.0001 11.1193 13.1194 10 14.5001 10C15.8808 10 17.0001 11.1193 17.0001 12.5C17.0001 13.8807 15.8808 15 14.5001 15C13.1194 15 12.0001 13.8807 12.0001 12.5Z" fill="white"/><path d="M41.0001 12.5C41.0001 11.1193 42.1194 10 43.5001 10C44.8808 10 46.0001 11.1193 46.0001 12.5C46.0001 13.8807 44.8808 15 43.5001 15C42.1194 15 41.0001 13.8807 41.0001 12.5Z" fill="white"/><defs><linearGradient id="paint0_device" x1="8" y1="56" x2="59" y2="5.5" gradientUnits="userSpaceOnUse"><stop stop-color="#285EFF"/><stop offset="1" stop-color="#00FFAE"/></linearGradient></defs></svg>